<?xml version="1.0" encoding="iso-8859-1"?>
<!-- Generator: Adobe Illustrator 19.0.0, SVG Export Plug-In . SVG Version: 6.00 Build 0)  -->
<svg version="1.1" id="Capa_1" xmlns="http://www.w3.org/2000/svg" xmlns:xlink="http://www.w3.org/1999/xlink" x="0px" y="0px"
	 viewBox="0 0 491.312 491.312" style="enable-background:new 0 0 491.312 491.312;" xml:space="preserve">
<path style="fill:#E19373;" d="M349.656,163.312c-3.76,0-7.392,0.72-10.808,1.952c-8.336-6.432-18.48-9.952-29.192-9.952
	c-11.848,0-23.128,4.424-31.88,12.336c-2.536-1.488-5.264-2.6-8.12-3.336v-17h-48v17c-2.848,0.736-5.576,1.848-8.12,3.336
	c-8.752-7.912-20.032-12.336-31.88-12.336c-10.776,0-20.896,3.696-29.104,9.976c-3.48-1.256-7.152-1.976-10.896-1.976
	c-17.648,0-32,14.352-32,32v1.392c32.28,8.92,81.216,14.608,136,14.608s103.72-5.688,136-14.608v-1.392
	C381.656,177.664,367.304,163.312,349.656,163.312z"/>
<g>
	<path style="fill:#333333;" d="M157.656,259.312c-13.232,0-24-10.768-24-24h-16c0,22.056,17.944,40,40,40s40-17.944,40-40h-16
		C181.656,248.544,170.888,259.312,157.656,259.312z"/>
	<path style="fill:#333333;" d="M333.656,259.312c-13.232,0-24-10.768-24-24h-16c0,22.056,17.944,40,40,40s40-17.944,40-40h-16
		C357.656,248.544,346.888,259.312,333.656,259.312z"/>
	<path style="fill:#333333;" d="M477.656,235.312c0-28.152-20.912-51.456-48-55.36v-8.64c0-23.592-47.216-35.552-86.832-41.432
		l-2.336,15.832c60.744,9.008,73.168,22.48,73.168,25.6c0,10.856-59.296,32-168,32s-168-21.144-168-32
		c0-3.12,12.424-16.592,73.168-25.6l-2.344-15.832c-39.608,5.88-86.824,17.84-86.824,41.432v8.64c-27.088,3.904-48,27.208-48,55.36
		c0,28.216,21.008,51.568,48.184,55.392c2.776,69.656,44.416,129.488,103.816,158.28v42.328h16v-35.496
		c19.944,7.424,41.504,11.496,64,11.496s44.056-4.072,64-11.496v35.496h16v-42.328c59.4-28.8,101.04-88.624,103.816-158.288
		C456.648,286.88,477.656,263.528,477.656,235.312z M29.656,235.312c0-19.312,13.768-35.472,32-39.192v78.384
		C43.424,270.784,29.656,254.624,29.656,235.312z M245.656,451.312c-92.632,0-168-75.368-168-168v-90.584
		c34.856,20.52,118.544,26.584,168,26.584s133.144-6.064,168-26.584v90.584C413.656,375.944,338.288,451.312,245.656,451.312z
		 M429.656,274.504V196.12c18.232,3.72,32,19.872,32,39.192S447.888,270.784,429.656,274.504z"/>
	<path style="fill:#333333;" d="M213.656,147.312h64h8h40v-22.936c0-8.376-4.464-16.264-11.648-20.584l-28.352-17.008V56.568
		c0-10.688-4.168-20.736-11.72-28.288L245.656,0l-28.28,28.28c-7.552,7.552-11.72,17.6-11.72,28.288v30.208l-28.36,17.008
		c-7.176,4.328-11.64,12.216-11.64,20.592v22.936h40H213.656z M305.768,117.504c2.4,1.44,3.888,4.072,3.888,6.864v6.944h-24V105.44
		L305.768,117.504z M221.656,56.568c0-6.416,2.496-12.448,7.032-16.976l16.968-16.968l16.968,16.968
		c4.536,4.536,7.032,10.56,7.032,16.976v74.744h-48V56.568z M181.656,131.312v-6.936c0-2.8,1.496-5.432,3.88-6.864l20.12-12.072
		v25.872H181.656z"/>
	<rect x="237.656" y="59.312" style="fill:#333333;" width="16" height="16"/>
</g>
<g>
</g>
<g>
</g>
<g>
</g>
<g>
</g>
<g>
</g>
<g>
</g>
<g>
</g>
<g>
</g>
<g>
</g>
<g>
</g>
<g>
</g>
<g>
</g>
<g>
</g>
<g>
</g>
<g>
</g>
</svg>
