<?xml version="1.0" encoding="iso-8859-1"?>
<!-- Generator: Adobe Illustrator 19.0.0, SVG Export Plug-In . SVG Version: 6.00 Build 0)  -->
<svg version="1.1" id="Capa_1" xmlns="http://www.w3.org/2000/svg" xmlns:xlink="http://www.w3.org/1999/xlink" x="0px" y="0px"
	 viewBox="0 0 496 496" style="enable-background:new 0 0 496 496;" xml:space="preserve">
<g>
	<path style="fill:#333333;" d="M160,264c-13.232,0-24-10.768-24-24h-16c0,22.056,17.944,40,40,40s40-17.944,40-40h-16
		C184,253.232,173.232,264,160,264z"/>
	<path style="fill:#333333;" d="M336,264c-13.232,0-24-10.768-24-24h-16c0,22.056,17.944,40,40,40s40-17.944,40-40h-16
		C360,253.232,349.232,264,336,264z"/>
	<path style="fill:#333333;" d="M432,184.64V176c0-11.6-10.864-21.12-32.744-28.92C419.944,133.544,432,110.08,432,80
		c0-48.6-31.4-80-80-80c-52.824,0-89.456,44.032-104,65.128C233.456,44.032,196.824,0,144,0C95.4,0,64,31.4,64,80
		c0,30.08,12.056,53.544,32.744,67.08C74.864,154.88,64,164.4,64,176v8.64c-27.088,3.904-48,27.208-48,55.36
		c0,28.216,21.008,51.568,48.184,55.392C66.96,365.048,108.6,424.88,168,453.672V496h16v-35.496
		C203.944,467.928,225.504,472,248,472s44.056-4.072,64-11.496V496h16v-42.328c59.4-28.8,101.04-88.624,103.816-158.288
		C458.992,291.568,480,268.216,480,240C480,211.848,459.088,188.544,432,184.64z M352,16c39.48,0,64,24.52,64,64s-24.52,64-64,64
		c-50.2,0-85.456-49.592-94.64-64.008C266.52,65.56,301.664,16,352,16z M248,94.872c6.112,8.872,16.112,21.688,29.624,33.72
		c-19.6-0.752-39.648-0.752-59.24,0C231.888,116.56,241.888,103.736,248,94.872z M80,80c0-39.48,24.52-64,64-64
		c50.2,0,85.456,49.592,94.64,64.008C229.48,94.44,194.336,144,144,144C104.52,144,80,119.48,80,80z M119.392,156.96
		C126.984,158.936,135.2,160,144,160c18.944,0,35.728-5.776,50.256-14.032c34.824-2.568,72.672-2.568,107.488,0
		C316.272,154.224,333.056,160,352,160c8.8,0,17.016-1.064,24.608-3.04C408.64,165.024,416,173.592,416,176
		c0,10.856-59.296,32-168,32S80,186.856,80,176C80,173.592,87.36,165.024,119.392,156.96z M32,240c0-19.312,13.768-35.472,32-39.192
		v78.384C45.768,275.472,32,259.312,32,240z M248,456c-92.632,0-168-75.368-168-168v-90.584C114.856,217.936,198.544,224,248,224
		s133.144-6.064,168-26.584V288C416,380.632,340.632,456,248,456z M432,279.192v-78.384c18.232,3.72,32,19.872,32,39.192
		S450.232,275.472,432,279.192z"/>
	<path style="fill:#333333;" d="M202.88,84.856l12.576-9.896c-3.304-4.192-6.792-8.216-10.36-11.944l-11.56,11.056
		C196.752,77.432,199.896,81.056,202.88,84.856z"/>
	<path style="fill:#333333;" d="M144,48c13,0,26.392,5.688,39.808,16.92l10.264-12.272C177.704,38.944,160.848,32,144,32
		c-30.952,0-48,17.048-48,48h16C112,57.864,121.864,48,144,48z"/>
	<rect x="464" style="fill:#333333;" width="16" height="16"/>
	<rect x="464" y="32" style="fill:#333333;" width="16" height="16"/>
	<rect x="480" y="16" style="fill:#333333;" width="16" height="16"/>
	<rect x="448" y="16" style="fill:#333333;" width="16" height="16"/>
	<rect x="16" y="104" style="fill:#333333;" width="16" height="16"/>
	<rect x="16" y="136" style="fill:#333333;" width="16" height="16"/>
	<rect x="32" y="120" style="fill:#333333;" width="16" height="16"/>
	<rect y="120" style="fill:#333333;" width="16" height="16"/>
	<path style="fill:#333333;" d="M302.464,85.936c-3.208-3.36-6.36-6.992-9.344-10.792l-12.576,9.896
		c3.304,4.192,6.792,8.216,10.36,11.944L302.464,85.936z"/>
	<path style="fill:#333333;" d="M352,128c30.952,0,48-17.048,48-48h-16c0,22.136-9.864,32-32,32c-13,0-26.392-5.688-39.808-16.92
		l-10.264,12.272C318.296,121.056,335.152,128,352,128z"/>
</g>
<g>
	<circle style="fill:#E19373;" cx="352" cy="80" r="24"/>
	<circle style="fill:#E19373;" cx="144" cy="80" r="24"/>
</g>
<g>
</g>
<g>
</g>
<g>
</g>
<g>
</g>
<g>
</g>
<g>
</g>
<g>
</g>
<g>
</g>
<g>
</g>
<g>
</g>
<g>
</g>
<g>
</g>
<g>
</g>
<g>
</g>
<g>
</g>
</svg>
