<?xml version="1.0" encoding="iso-8859-1"?>
<!-- Generator: Adobe Illustrator 19.0.0, SVG Export Plug-In . SVG Version: 6.00 Build 0)  -->
<svg version="1.1" id="Capa_1" xmlns="http://www.w3.org/2000/svg" xmlns:xlink="http://www.w3.org/1999/xlink" x="0px" y="0px"
	 viewBox="0 0 496 496" style="enable-background:new 0 0 496 496;" xml:space="preserve">
<g>
	<circle style="fill:#E19373;" cx="152" cy="144" r="48"/>
	<circle style="fill:#E19373;" cx="312" cy="104" r="48"/>
	<circle style="fill:#E19373;" cx="224" cy="48" r="48"/>
</g>
<g>
	<path style="fill:#333333;" d="M160,264c-13.232,0-24-10.768-24-24h-16c0,22.056,17.944,40,40,40s40-17.944,40-40h-16
		C184,253.232,173.232,264,160,264z"/>
	<path style="fill:#333333;" d="M336,264c-13.232,0-24-10.768-24-24h-16c0,22.056,17.944,40,40,40s40-17.944,40-40h-16
		C360,253.232,349.232,264,336,264z"/>
	<path style="fill:#333333;" d="M480,240c0-28.152-20.912-51.456-48-55.36V176c0-12.432-12.28-22.44-37.536-30.6l-4.92,15.224
		C411.248,167.64,416,174.104,416,176c0,10.856-59.296,32-168,32S80,186.856,80,176c0-1.896,4.752-8.36,26.464-15.368l-4.92-15.224
		C76.28,153.56,64,163.568,64,176v8.64c-27.088,3.904-48,27.208-48,55.36c0,28.224,21.008,51.568,48.184,55.392
		C66.96,365.048,108.6,424.872,168,453.672V496h16v-35.496C203.944,467.928,225.504,472,248,472s44.056-4.072,64-11.496V496h16
		v-42.328c59.4-28.8,101.04-88.624,103.816-158.288C458.992,291.568,480,268.224,480,240z M32,240c0-19.312,13.768-35.472,32-39.192
		v78.384C45.768,275.472,32,259.312,32,240z M248,456c-92.632,0-168-75.36-168-168v-90.584C114.856,217.936,198.544,224,248,224
		s133.144-6.064,168-26.584V288C416,380.64,340.632,456,248,456z M432,279.192v-78.384c18.232,3.72,32,19.872,32,39.192
		S450.232,275.472,432,279.192z"/>
	<path style="fill:#333333;" d="M152,112c-17.648,0-32,14.352-32,32s14.352,32,32,32s32-14.352,32-32
		c0-7.536-2.728-14.384-7.104-19.856l34.928-46.576C215.584,79.12,219.688,80,224,80c8.424,0,16.04-3.336,21.752-8.672L281.696,94.2
		c-1.008,3.112-1.696,6.36-1.696,9.8c0,17.648,14.352,32,32,32s32-14.352,32-32c0-3.176-0.608-6.184-1.472-9.088l70.04-53.88
		l-11.92,27.808l14.704,6.304L444.848,6.32l-77.832,9.728L369,31.92l34.832-4.352l-69.56,53.504C328.496,75.488,320.656,72,312,72
		c-8.424,0-16.04,3.336-21.752,8.672L254.304,57.8C255.312,54.688,256,51.44,256,48c0-17.648-14.352-32-32-32s-32,14.352-32,32
		c0,7.536,2.728,14.384,7.104,19.856l-34.928,46.576C160.416,112.88,156.312,112,152,112z M152,160c-8.824,0-16-7.176-16-16
		s7.176-16,16-16s16,7.176,16,16S160.824,160,152,160z M312,88c8.824,0,16,7.176,16,16s-7.176,16-16,16s-16-7.176-16-16
		S303.176,88,312,88z M224,32c8.824,0,16,7.176,16,16s-7.176,16-16,16s-16-7.176-16-16S215.176,32,224,32z"/>
	<rect x="112" y="24" style="fill:#333333;" width="16" height="16"/>
	<rect x="112" y="56" style="fill:#333333;" width="16" height="16"/>
	<rect x="128" y="40" style="fill:#333333;" width="16" height="16"/>
	<rect x="96" y="40" style="fill:#333333;" width="16" height="16"/>
	<rect x="232" y="112" style="fill:#333333;" width="16" height="16"/>
	<rect x="232" y="144" style="fill:#333333;" width="16" height="16"/>
	<rect x="248" y="128" style="fill:#333333;" width="16" height="16"/>
	<rect x="216" y="128" style="fill:#333333;" width="16" height="16"/>
	<rect x="432" y="88" style="fill:#333333;" width="16" height="16"/>
	<rect x="432" y="120" style="fill:#333333;" width="16" height="16"/>
	<rect x="448" y="104" style="fill:#333333;" width="16" height="16"/>
	<rect x="416" y="104" style="fill:#333333;" width="16" height="16"/>
</g>
<g>
</g>
<g>
</g>
<g>
</g>
<g>
</g>
<g>
</g>
<g>
</g>
<g>
</g>
<g>
</g>
<g>
</g>
<g>
</g>
<g>
</g>
<g>
</g>
<g>
</g>
<g>
</g>
<g>
</g>
</svg>
